<svg width="16" height="16" viewBox="0 0 16 16" fill="none" xmlns="http://www.w3.org/2000/svg">
<path d="M15.9948 8.20032V8.0363C15.9948 7.05881 15.105 6.2636 14.0113 6.2636C13.7643 6.2636 13.5279 6.30449 13.3095 6.37853C13.124 5.57196 12.3234 4.96359 11.3668 4.96359C11.107 4.96359 10.859 5.00889 10.6315 5.09044C10.3914 4.34606 9.59423 3.78178 8.6781 3.78178C8.43146 3.78178 8.19361 3.82441 7.97287 3.90122V1.77271C7.97287 0.795202 7.08303 0 5.98942 0C4.89579 0 4.00598 0.795202 4.00598 1.77271V6.9931C3.65883 6.59685 3.24142 6.25152 2.75694 6.07354C2.21629 5.87503 1.64735 5.89869 1.11138 6.14223C0.125658 6.59023 -0.280727 7.66984 0.205436 8.54901L2.66931 13.0055C2.73895 13.1278 4.40866 16 7.43158 16H10.9577C13.738 16 16 13.9678 16 11.4693L15.9972 8.20032H15.9948ZM10.9578 14.8182H7.43171C5.25413 14.8182 3.89755 12.554 3.84862 12.4707L1.39092 8.02548C1.22131 7.71878 1.36183 7.35431 1.71082 7.19569C1.90317 7.10824 2.07058 7.09936 2.25367 7.16639C2.98366 7.43387 3.70026 8.72292 3.98023 9.4721L4.19268 10.044L5.32836 9.68485V1.77271C5.32836 1.44685 5.6249 1.18181 5.98951 1.18181C6.35411 1.18181 6.65066 1.44685 6.65066 1.77271V8.5878H6.66266H7.97294H7.98494V5.59387C7.98494 5.26401 8.31534 4.96359 8.67817 4.96359C9.05386 4.96359 9.3834 5.23974 9.3834 5.55447V6.73632V8.78477H10.7057V6.73632C10.7057 6.41042 11.0022 6.14543 11.3668 6.14543C11.7315 6.14543 12.028 6.41042 12.028 6.73632V8.0363V9.33627H13.3503V8.0363C13.3503 7.71045 13.6468 7.4454 14.0114 7.4454C14.376 7.4454 14.6726 7.71045 14.6726 8.0363V8.88143H14.6756L14.6778 11.4697C14.6778 13.3161 13.0089 14.8182 10.9578 14.8182Z" fill="url(#paint0_linear_1_201)"/>
<defs>
<linearGradient id="paint0_linear_1_201" x1="4.65665" y1="4.58413" x2="16.9603" y2="21.6269" gradientUnits="userSpaceOnUse">
<stop stop-color="#EABB5A"/>
<stop offset="1" stop-color="#B79144"/>
</linearGradient>
</defs>
</svg>
